<?xml version="1.0" encoding="utf-8"?>
<!-- Generator: Adobe Illustrator 25.4.1, SVG Export Plug-In . SVG Version: 6.00 Build 0)  -->
<svg version="1.1" id="Layer_1" xmlns="http://www.w3.org/2000/svg" xmlns:xlink="http://www.w3.org/1999/xlink" width="173" height="53"
	 viewBox="0 0 173 53" style="enable-background:new 0 0 173 53;" xml:space="preserve">
<style type="text/css">
	.st0{fill-rule:evenodd;clip-rule:evenodd;fill:#346D99;}
	.st1{fill-rule:evenodd;clip-rule:evenodd;fill:#CBCBCB;}
	.st2{fill-rule:evenodd;clip-rule:evenodd;fill:url(#SVGID_1_);}
	.st3{fill-rule:evenodd;clip-rule:evenodd;fill:#761FE3;}
</style>
<g>
	<g>
		<polygon class="st0" points="22.63,6.92 23.45,4.28 29.09,4.28 30.27,7.76 32.71,8.47 35.47,5.86 40.39,8.69 39.73,12.23 
			41.27,13.8 44.65,13.01 47.42,17.81 45.17,20.51 45.69,22.57 48.78,23.57 48.78,29.14 45.64,30.3 45.15,32.52 47.4,35.16 
			44.71,40.05 41.35,39.31 39.73,41.11 40.43,44.63 35.59,47.57 32.97,45.16 30.26,46.01 29.11,49.42 23.47,49.38 22.37,46.01 
			21.44,45.75 22.96,43.53 22.97,43.56 24.38,44.39 25.21,47 27.46,47.02 28.38,44.29 32.68,41.66 35.84,44.68 37.84,43.43 
			36.88,39.12 40.65,36.78 43.55,37.36 44.58,35.5 42.78,33.41 42.78,28.76 46.49,27.51 46.49,25.35 42.76,24.17 42.75,19.67 
			44.5,17.56 43.46,15.75 40.67,16.32 36.89,14.24 37.72,9.92 35.82,8.83 32.59,11.87 28.26,9.46 27.37,6.68 25.22,6.68 24.29,9.62 
					"/>
		<path class="st0" d="M27.42,14.69l3.34,1.89l2.57-1.27l-1.03,0.52v0l-0.2,0.1l0.81,0.46c0.02,0.01,0.05,0.03,0.07,0.04l0.35,0.2
			L32,17.29l5.64,3.2v5.6L39,26.06c-0.05,0.18-0.08,0.37-0.08,0.56l0,0v0.62l-1.28,0.03v5.48l-5.43,3.62l0.97,0.56l-0.38,0.23
			c-0.01,0.01-0.03,0.02-0.04,0.02l-0.73,0.44l0.16,0.09l0.86,0.51l-2.03-1.17l-4.72,2.67l-0.56-0.31l2.34-3.43l2.66-1.51l4.45-2.97
			v-4.6v-5.05l-4.45-2.52l-0.77-0.44L27.42,14.69z"/>
		<path class="st1" d="M40.93,24.62c1.11,0,2,0.9,2,2c0,0.91-0.61,1.68-1.44,1.93l0,0v6.36l-5.72,3.46
			c0.04,0.17,0.07,0.34,0.07,0.52c0,0.51-0.19,0.98-0.5,1.33l1.43,2.5l-1.03,0.59l-1.42-2.47c-0.16,0.04-0.32,0.06-0.49,0.06
			c-0.52,0-1-0.2-1.36-0.53l-6.15,3.72l-2.7-1.53l1.45-2.12l1.2,0.68l4.62-2.8l0.92,0.55v0l1.41,0.84l0,0l0,0l0,0l0,0l0,0l0,0l0,0
			l0,0l0,0l0,0l0,0l0,0l0,0l0,0l0.01,0.01l0,0l0,0l0,0l0,0l0,0l0,0l0,0l0,0l0,0l0.01,0l0,0l0.01,0l0,0l0.01,0.01h0l0.01,0h0l0,0h0
			l0,0h0l0.01,0h0l0,0h0l0.01,0l0,0h0l0,0v0l0,0l0,0v0l0,0v0l0,0v0l0,0l0,0l0,0l0,0h0l0,0l0,0l0,0v0l0,0h0l0,0l0,0
			c0.14,0.08,0.3,0.12,0.47,0.12c0.54,0,0.98-0.43,1.01-0.96l0,0v0l0,0l0,0v0l0,0v0l0,0l0,0v0l0,0v0l0,0l0,0v0l0,0v0l0,0v0l0,0v0
			l0,0v0l0,0v0l0,0l0,0v0v0l0,0v0l0,0v0v0l0,0v0l0-0.02v0v0v0v0c0-0.56-0.45-1.01-1.01-1.01c-0.3,0-0.58,0.13-0.76,0.35l-1.04-0.6
			l0.74-0.45c0.01-0.01,0.03-0.02,0.04-0.02l6.11-3.7v-6.83l0,0C38.92,25.51,39.82,24.62,40.93,24.62L40.93,24.62z M24.86,10.54
			l1.46-0.83l6.21,3.52c0.36-0.35,0.85-0.57,1.4-0.57c0.13,0,0.26,0.01,0.38,0.04l1.44-2.68l1.04,0.56l-1.44,2.68
			c0.36,0.36,0.58,0.86,0.58,1.41c0,0.16-0.02,0.31-0.05,0.46l5.6,3.17v5.4c-0.18-0.03-0.37-0.05-0.56-0.05c-0.77,0-1.48,0.3-2,0.78
			V19.8l-5.94-3.36c-0.02-0.01-0.05-0.03-0.07-0.04l-0.82-0.47c0.41-0.21,0.83-0.41,1.24-0.61c0.16,0.15,0.37,0.24,0.6,0.24
			c0.49,0,0.88-0.4,0.88-0.88l0-0.02l0,0l0,0l0,0l0-0.02v0l0,0l0,0l0-0.01l0,0l0,0l0,0l0-0.01l0,0l0,0l0,0l0,0l0,0l0,0l0-0.01v0l0,0
			l0,0l0,0l0,0l0,0l0,0l0-0.01l0,0l0,0l0,0l0,0l0,0l0,0l0,0l0,0l0,0l0,0l0,0l0,0l0,0l0,0c-0.07-0.42-0.43-0.73-0.87-0.73
			c-0.11,0-0.22,0.02-0.32,0.06l0,0l-0.02,0.01l0,0l0,0l0,0l0,0l0,0l-0.02,0.01l0,0l0,0l0,0l0,0l0,0l0,0l0,0
			c-0.03,0.01-0.06,0.03-0.09,0.05l0,0l-1.53,0.77l-1.07,0.54l-4.54-2.57l-0.11,0.07L24.86,10.54L24.86,10.54z M40.93,25.61
			c-0.56,0-1.01,0.45-1.01,1.01c0,0.56,0.45,1.01,1.01,1.01c0.56,0,1.01-0.45,1.01-1.01C41.93,26.06,41.48,25.61,40.93,25.61z"/>
		<g>
			<linearGradient id="SVGID_1_" gradientUnits="userSpaceOnUse" x1="17.7689" y1="0.2088" x2="18.1514" y2="28.0819">
				<stop  offset="0" style="stop-color:#C8AAFF"/>
				<stop  offset="5.671740e-03" style="stop-color:#C6A7FE"/>
				<stop  offset="0.0941" style="stop-color:#B183F7"/>
				<stop  offset="0.1889" style="stop-color:#9F64F1"/>
				<stop  offset="0.2931" style="stop-color:#904BEC"/>
				<stop  offset="0.4084" style="stop-color:#8437E8"/>
				<stop  offset="0.5408" style="stop-color:#7C29E5"/>
				<stop  offset="0.7052" style="stop-color:#7721E3"/>
				<stop  offset="1" style="stop-color:#761FE3"/>
			</linearGradient>
			<path class="st2" d="M18.26,3.58l-7.54,16.77l-3.19-3.54l3.52-2.1l1.83-4.28l-8.78,5.33v22.09l14.49,8.59L32.3,26.36L18.26,3.58
				L18.26,3.58z M6.84,33.94V20.13l4.66,5.17L18.64,9.4l10.4,16.88L17.78,42.78L7.8,36.86l3.19-3.41l5.47,6.89l1.63-2.45L9.41,27.07
				l0.04,4.14L6.84,33.94z"/>
			<path class="st3" d="M18.56,14.24L26,26.34l-6.43,9.4l-4.08-5.11l1.82-2.07l2.07,2.57l3.4-4.87l-2.72-4.37
				c-1.08,2.5-5.47,7.61-5.47,7.61l-1.72-2.16c0,0,1.56-1.73,3.4-4.31C18.1,20.45,19.09,18.83,18.56,14.24z"/>
		</g>
	</g>
	<g>
		<polygon class="st0" points="56.86,18.64 59.47,18.64 61.6,18.64 72.14,18.64 72.14,22.36 61.6,22.36 61.6,27.44 71.03,27.44 
			71.03,31.16 61.6,31.16 61.6,38.47 56.86,38.47 		"/>
		<path class="st0" d="M79.14,23.13v8.26c0,1.84,1.5,3.34,3.34,3.34h0.16c1.74,0,3.16-1.42,3.16-3.16v-8.45h4.51v15.33h-4.18v-1.93
			c-1.13,1.32-2.81,2.15-4.67,2.15h-0.31c-3.6,0-6.54-2.94-6.54-6.54v-9.02H79.14z"/>
		<path class="st0" d="M101.47,22.89c-4.55,0-8.24,3.53-8.24,7.88c0,8.34,11.63,10.08,15.4,5.27l-2.43-2.47
			c-2.46,2.41-7.38,1.9-8.44-1.54h7.61h0.72h3.51c0.07-0.41,0.1-0.83,0.1-1.26C109.7,26.42,106.02,22.89,101.47,22.89L101.47,22.89z
			 M97.72,29.36c0.49-1.82,2.03-3.14,3.85-3.14c1.82,0,3.36,1.32,3.85,3.14H97.72z"/>
		<g>
			<path class="st1" d="M122.55,18.36c5.97,0,10.81,4.54,10.81,10.15s-4.84,10.15-10.81,10.15c-5.97,0-10.81-4.54-10.81-10.15
				S116.59,18.36,122.55,18.36L122.55,18.36z M122.55,22.12c-3.4,0-6.16,2.86-6.16,6.38c0,3.53,2.76,6.38,6.16,6.38
				c3.4,0,6.16-2.86,6.16-6.38C128.72,24.98,125.96,22.12,122.55,22.12z"/>
			<path class="st1" d="M136.68,23.09h4.15v1.9c1.32-1.28,3.08-2.06,5.01-2.06c4.1,0,7.42,3.51,7.42,7.84
				c0,4.33-3.32,7.84-7.42,7.84c-1.93,0-3.69-0.78-5.01-2.06v7.27h-4.15V23.09L136.68,23.09z M144.88,26.42
				c-2.14,0-3.88,1.94-3.88,4.34s1.74,4.34,3.88,4.34c2.14,0,3.88-1.94,3.88-4.34S147.02,26.42,144.88,26.42z"/>
			<path class="st1" d="M168.39,24.31l-1.58,3.18c-1.56-1.06-6.78-2.19-7.13,0.06c-0.2,1.31,1.85,1.39,2.72,1.53
				c3.14,0.49,6.57,1.25,6.49,4.8c-0.04,1.81-1.11,3.8-4.47,4.49c-4.62,0.95-8.61-0.87-9.41-1.52l1.44-3.2c0,0,2.66,1.76,5.64,1.6
				c1.82-0.1,2.46-0.66,2.54-1.22c0.12-0.73-0.45-1.08-1.05-1.26c-1.3-0.38-3.85-0.62-5.11-1c-2.15-0.66-3.62-2.55-3.05-4.82
				c0.32-1.3,1.32-2.54,2.92-3.29C161.36,22.25,165.49,22.86,168.39,24.31z"/>
		</g>
	</g>
</g>
</svg>
